<?xml version="1.0" encoding="utf-8"?>
<!-- Generator: Adobe Illustrator 15.0.0, SVG Export Plug-In  -->
<!DOCTYPE svg PUBLIC "-//W3C//DTD SVG 1.1//EN" "http://www.w3.org/Graphics/SVG/1.1/DTD/svg11.dtd" [
	<!ENTITY ns_flows "http://ns.adobe.com/Flows/1.0/">
]>
<svg version="1.1"
	 xmlns="http://www.w3.org/2000/svg" xmlns:xlink="http://www.w3.org/1999/xlink" xmlns:a="http://ns.adobe.com/AdobeSVGViewerExtensions/3.0/"
	 x="0px" y="0px" width="489px" height="382px" viewBox="-3 -4.364 489 382" enable-background="new -3 -4.364 489 382"
	 xml:space="preserve">
<defs>
</defs>
<path fill="#00338D" d="M7.279,320.956h29.342v7.982H16.556v14.453h16.9v7.982h-16.9v20.639H7.279V320.956z"/>
<path fill="#00338D" d="M69.274,320.093c15.031,0,26.394,11.434,26.394,26.032c0,15.031-11.363,26.751-26.394,26.751
	c-15.03,0-26.393-11.72-26.393-26.751C42.882,331.526,54.245,320.093,69.274,320.093z M69.274,364.392
	c9.35,0,16.827-7.767,16.827-18.266c0-10.067-7.478-17.547-16.827-17.547s-16.829,7.479-16.829,17.547
	C52.445,356.625,59.925,364.392,69.274,364.392z"/>
<path fill="#00338D" d="M105.454,320.956h9.277v32.721c0,6.832,4.459,10.715,11.291,10.715c6.831,0,11.362-3.883,11.362-10.787
	v-32.648h9.277v32.721c0,11.437-8.271,19.2-20.568,19.2c-12.368,0-20.639-7.764-20.639-19.2V320.956z"/>
<path fill="#00338D" d="M159.971,320.956h9.276l19.345,29.484c1.943,2.949,4.243,7.911,4.243,7.911h0.145
	c0,0-0.505-4.893-0.505-7.911v-29.484h9.205v51.059h-9.205l-19.344-29.412c-1.943-2.948-4.244-7.909-4.244-7.909h-0.142
	c0,0,0.502,4.89,0.502,7.909v29.412h-9.276V320.956L159.971,320.956z"/>
<path fill="#00338D" d="M215.711,320.956h17.402c15.75,0,26.034,9.348,26.034,25.457c0,16.108-10.284,25.602-26.034,25.602h-17.402
	V320.956L215.711,320.956z M232.612,364.03c10.355,0,16.971-6.112,16.971-17.617c0-11.361-6.761-17.475-16.971-17.475h-7.623v35.092
	H232.612z"/>
<path fill="#00338D" d="M295.04,358.928h-17.907l-4.316,13.087h-9.563l17.979-51.059h9.708l17.98,51.059h-9.566L295.04,358.928z
	 M286.052,329.802c0,0-1.152,5.032-2.157,7.908l-4.531,13.664h13.376l-4.53-13.664c-0.936-2.876-2.014-7.908-2.014-7.908H286.052z"
	/>
<path fill="#00338D" d="M324.174,328.938h-16.757v-7.982h42.79v7.982h-16.755v43.076h-9.277L324.174,328.938L324.174,328.938z"/>
<path fill="#00338D" d="M358.05,320.956h9.276v51.059h-9.276V320.956z"/>
<path fill="#00338D" d="M404.222,320.093c15.031,0,26.393,11.434,26.393,26.032c0,15.031-11.361,26.751-26.393,26.751
	c-15.03,0-26.394-11.72-26.394-26.751C377.828,331.526,389.191,320.093,404.222,320.093z M404.222,364.392
	c9.349,0,16.826-7.767,16.826-18.266c0-10.067-7.478-17.547-16.826-17.547c-9.351,0-16.829,7.479-16.829,17.547
	C387.393,356.625,394.871,364.392,404.222,364.392z"/>
<path fill="#00338D" d="M441.12,320.956h9.276l19.346,29.484c1.942,2.949,4.243,7.911,4.243,7.911h0.144
	c0,0-0.503-4.893-0.503-7.911v-29.484h9.204v51.059h-9.204l-19.346-29.412c-1.941-2.948-4.243-7.909-4.243-7.909h-0.144
	c0,0,0.503,4.89,0.503,7.909v29.412h-9.276V320.956z"/>
<path fill="#0097DC" d="M36.474,0c20.095,0,36.471,16.314,36.471,36.447c0,20.132-16.376,36.498-36.471,36.498
	C16.327,72.945,0,56.58,0,36.447C0,16.313,16.327,0,36.474,0z"/>
<rect x="7.279" y="94.828" fill="#00338D" width="58.354" height="189.654"/>
<path fill="#00338D" d="M274.198,190.255l-0.001-1.036c-0.2-54.971-36.958-99.458-96.987-99.458l0,0
	c-60.031,0-96.787,44.488-96.986,99.458l-0.001,1.036c0,60.374,46.739,99.322,105.166,99.322c30.382,0,61.152-13.632,79.851-37.392
	l-39.761-29.158c-10.49,12.299-23.73,22.147-42.816,22.147c-22.59,0-39.339-14.412-44.014-36.614h134.008
	C273.652,202.704,274.198,196.606,274.198,190.255z M178.725,164.725h-37.489c3.585-14.784,15.613-28.176,37.489-28.176
	c21.876,0,33.904,13.393,37.488,28.176H178.725z"/>
</svg>
